<svg width="36" height="36" viewBox="0 0 36 36" fill="none" xmlns="http://www.w3.org/2000/svg">
<path d="M9.83796 22.9399C10.5978 22.4429 10.8022 21.6479 10.9867 20.9475C11.174 20.2286 11.335 18.664 12.0011 18.3482C15.5352 16.8569 20.0808 16.6915 23.6134 18.2046C24.2924 18.5284 24.4621 20.0952 24.6566 20.8175C24.8443 21.5174 25.0594 22.311 25.8191 22.8177C26.5025 23.2724 29.9472 23.6906 31.0106 23.6819C31.7126 23.6768 32.2663 23.5041 32.6691 23.159C34.1268 21.8043 33.8228 18.3349 33.6504 17.6059C33.3849 15.9479 32.1152 14.6698 29.8867 13.8178C24.0924 11.3353 11.5485 11.4363 5.67585 13.8708C4.55504 14.2826 3.67763 14.8085 3.05034 15.4437C2.43651 16.0653 2.06122 16.7923 1.93118 17.612C1.78092 18.1778 1.47802 21.8031 2.96419 23.205C3.36077 23.5443 3.91776 23.7212 4.61588 23.7316C5.68042 23.7493 9.15792 23.3895 9.83796 22.9399Z" fill="white"/>
</svg>
