<svg width="36" height="36" viewBox="0 0 36 36" fill="none" xmlns="http://www.w3.org/2000/svg">
<path fill-rule="evenodd" clip-rule="evenodd" d="M3 18.0225C3 10.1207 9.315 3 18.03 3C26.55 3 33 9.98548 33 17.9775C33 27.2464 25.44 33 18 33C15.54 33 12.81 32.339 10.62 31.0471C9.855 30.5814 9.21 30.2359 8.385 30.5063L5.355 31.4076C4.59 31.648 3.9 31.0471 4.125 30.2359L5.13 26.8708C5.295 26.4051 5.265 25.9094 5.025 25.5188C3.735 23.1452 3 20.5463 3 18.0225ZM16.05 18.0223C16.05 19.0889 16.905 19.9452 17.97 19.9602C19.035 19.9602 19.89 19.0889 19.89 18.0373C19.89 16.9707 19.035 16.1144 17.97 16.1144C16.92 16.0994 16.05 16.9707 16.05 18.0223ZM22.965 18.0371C22.965 19.0887 23.82 19.96 24.885 19.96C25.95 19.96 26.805 19.0887 26.805 18.0371C26.805 16.9705 25.95 16.1143 24.885 16.1143C23.82 16.1143 22.965 16.9705 22.965 18.0371ZM11.055 19.9605C10.005 19.9605 9.13501 19.0892 9.13501 18.0376C9.13501 16.971 9.99001 16.1147 11.055 16.1147C12.12 16.1147 12.975 16.971 12.975 18.0376C12.975 19.0892 12.12 19.9455 11.055 19.9605Z" fill="white"/>
</svg>
