<svg width="36" height="36" viewBox="0 0 36 36" fill="none" xmlns="http://www.w3.org/2000/svg">
<path fill-rule="evenodd" clip-rule="evenodd" d="M21.3185 11.6436C21.3185 15.6093 18.0734 18.7872 14.024 18.7872C9.97603 18.7872 6.72945 15.6093 6.72945 11.6436C6.72945 7.67798 9.97603 4.5 14.024 4.5C18.0734 4.5 21.3185 7.67798 21.3185 11.6436ZM3 26.8766C3 23.2056 8.07829 22.2871 14.024 22.2871C20.002 22.2871 25.048 23.2372 25.048 26.9111C25.048 30.582 19.9697 31.5005 14.024 31.5005C8.046 31.5005 3 30.5504 3 26.8766ZM24.2602 11.7733C24.2602 13.7928 23.6408 15.6772 22.5547 17.2424C22.4417 17.4034 22.5415 17.6205 22.7381 17.655C23.0111 17.6995 23.2915 17.7268 23.5777 17.7326C26.425 17.8059 28.9803 16.0106 29.6863 13.307C30.7328 9.29535 27.6623 5.69336 23.7509 5.69336C23.3267 5.69336 22.9201 5.73648 22.5239 5.81553C22.4696 5.82703 22.4108 5.8529 22.3815 5.8989C22.3433 5.95783 22.3712 6.03401 22.4094 6.08432C23.585 7.69846 24.2602 9.66331 24.2602 11.7733ZM28.9759 20.5531C30.8898 20.9196 32.1476 21.6656 32.6687 22.7536C33.1105 23.6448 33.1105 24.6797 32.6687 25.5708C31.8717 27.2554 29.3003 27.7973 28.3008 27.9367C28.0938 27.9655 27.928 27.793 27.95 27.5889C28.4607 22.9204 24.3996 20.7068 23.3487 20.198C23.3047 20.1736 23.2944 20.1391 23.2988 20.1161C23.3017 20.1017 23.3208 20.0787 23.3546 20.0744C25.628 20.0313 28.0733 20.3375 28.9759 20.5531Z" fill="white"/>
</svg>
