<svg width="36" height="36" viewBox="0 0 36 36" fill="none" xmlns="http://www.w3.org/2000/svg">
<path fill-rule="evenodd" clip-rule="evenodd" d="M9.16956 6.75H17.8576C21.4907 6.75 24.0272 9.25355 24.0272 12.8414V23.1586C24.0272 26.7464 21.4907 29.25 17.8576 29.25H9.16956C5.53653 29.25 3 26.7464 3 23.1586V12.8414C3 9.25355 5.53653 6.75 9.16956 6.75ZM29.937 10.3182C30.5955 9.98316 31.368 10.0182 31.9965 10.4141C32.625 10.8085 33 11.4938 33 12.2431V23.7573C33 24.508 32.625 25.1918 31.9965 25.5862C31.653 25.8009 31.269 25.9106 30.882 25.9106C30.5595 25.9106 30.237 25.8344 29.9355 25.6806L27.7139 24.5598C26.8919 24.1425 26.3819 23.305 26.3819 22.3745V13.6243C26.3819 12.6923 26.8919 11.8547 27.7139 11.4405L29.937 10.3182Z" fill="#F95A39"/>
</svg>
