<svg width="36" height="36" viewBox="0 0 36 36" fill="none" xmlns="http://www.w3.org/2000/svg">
<path fill-rule="evenodd" clip-rule="evenodd" d="M18.2621 22.8261H17.7376C14.1325 22.8261 11.2104 19.9391 11.2104 16.3805V9.4456C11.2104 5.8856 14.1325 3 17.7376 3H18.2621C21.8672 3 24.7908 5.8856 24.7908 9.4456V16.3805C24.7908 19.9391 21.8672 22.8261 18.2621 22.8261ZM27.8439 16.1742C27.8439 15.3807 28.4948 14.7393 29.2969 14.7393C30.099 14.7393 30.75 15.3807 30.75 16.1742C30.75 22.6298 25.8008 27.9605 19.4538 28.6765V31.565C19.4538 32.357 18.8028 32.9999 18.0007 32.9999C17.1972 32.9999 16.5477 32.357 16.5477 31.565V28.6765C10.1992 27.9605 5.25 22.6298 5.25 16.1742C5.25 15.3807 5.90098 14.7393 6.70307 14.7393C7.50517 14.7393 8.15615 15.3807 8.15615 16.1742C8.15615 21.5335 12.572 25.8942 18.0007 25.8942C23.428 25.8942 27.8439 21.5335 27.8439 16.1742Z" fill="#F95A39"/>
</svg>
