<svg width="44" height="44" viewBox="0 0 44 44" fill="none" xmlns="http://www.w3.org/2000/svg">
<path fill-rule="evenodd" clip-rule="evenodd" d="M29.5395 5.78366L29.5413 7.13298C34.4996 7.52159 37.775 10.9003 37.7803 16.0817L37.7999 31.2481C37.807 36.8973 34.2579 40.3731 28.5691 40.3821L14.6733 40.4001C9.02005 40.4073 5.42657 36.8487 5.41946 31.1833L5.39991 16.195C5.39281 10.9795 8.55265 7.60974 13.511 7.15457L13.5092 5.80525C13.5075 5.01364 14.0939 4.41814 14.8759 4.41814C15.6579 4.41634 16.2443 5.01005 16.2461 5.80165L16.2479 7.06102L26.8044 7.04663L26.8026 5.78726C26.8008 4.99565 27.3873 4.40195 28.1693 4.40015C28.9335 4.39835 29.5377 4.99205 29.5395 5.78366ZM8.1387 16.7509L35.0454 16.7149V16.0852C34.9689 12.2172 33.0282 10.1878 29.545 9.88555L29.5467 11.2709C29.5467 12.0445 28.9443 12.658 28.1801 12.658C27.3981 12.6598 26.8099 12.0481 26.8099 11.2745L26.8081 9.81719L16.2516 9.83158L16.2533 11.287C16.2533 12.0625 15.6687 12.6742 14.8867 12.6742C14.1047 12.676 13.5165 12.0661 13.5165 11.2906L13.5147 9.90534C10.0492 10.2526 8.13159 12.2891 8.13692 16.1914L8.1387 16.7509ZM27.4319 24.9278V24.9476C27.4497 25.7752 28.125 26.4031 28.9443 26.3851C29.7441 26.3653 30.3821 25.6798 30.3643 24.8522C30.327 24.0606 29.6854 23.4148 28.8875 23.4166C28.0699 23.4345 27.4302 24.1002 27.4319 24.9278ZM28.8999 33.0058C28.0824 32.9878 27.4231 32.3059 27.4213 31.4783C27.4035 30.6508 28.0593 29.9653 28.8768 29.9455H28.8946C29.7299 29.9455 30.407 30.6274 30.407 31.4729C30.4088 32.3185 29.7334 33.004 28.8999 33.0058ZM20.1098 24.9568C20.1453 25.7844 20.8224 26.4303 21.6399 26.3943C22.4397 26.3565 23.0777 25.6728 23.0421 24.8452C23.0226 24.0357 22.365 23.406 21.5653 23.4078C20.7478 23.4437 20.108 24.1292 20.1098 24.9568ZM21.647 32.925C20.8294 32.961 20.1541 32.3151 20.1168 31.4875C20.1168 30.6599 20.7548 29.9763 21.5723 29.9385C22.372 29.9367 23.0314 30.5664 23.0492 31.3742C23.0865 32.2035 22.4467 32.8872 21.647 32.925ZM12.7876 25.0196C12.8231 25.8472 13.5002 26.4949 14.3178 26.4571C15.1175 26.4211 15.7555 25.7357 15.7182 24.9081C15.7004 24.0985 15.0428 23.4688 14.2413 23.4706C13.4238 23.5066 12.7858 24.192 12.7876 25.0196ZM14.3253 32.9337C13.5078 32.9715 12.8324 32.3238 12.7951 31.4962C12.7933 30.6687 13.4331 29.9832 14.2506 29.9472C15.0504 29.9454 15.7097 30.5751 15.7275 31.3847C15.7648 32.2123 15.1268 32.8977 14.3253 32.9337Z" fill="#D3D3D3"/>
</svg>
