<svg width="37" height="37" viewBox="0 0 37 37" fill="none" xmlns="http://www.w3.org/2000/svg">
<path fill-rule="evenodd" clip-rule="evenodd" d="M24.8163 4.65293L24.8178 5.77736C28.9497 6.1012 31.6792 8.91679 31.6836 13.2346L31.6999 25.8733C31.7059 30.5809 28.7483 33.4775 24.0077 33.485L12.4278 33.5C7.71675 33.506 4.72218 30.5405 4.71626 25.8193L4.69997 13.3291C4.69404 8.98276 7.32725 6.17467 11.4592 5.79536L11.4577 4.67092C11.4563 4.01125 11.945 3.515 12.5966 3.515C13.2483 3.5135 13.737 4.00825 13.7385 4.66792L13.7399 5.7174L22.537 5.7054L22.5356 4.65593C22.5341 3.99626 23.0228 3.5015 23.6744 3.50001C24.3113 3.49851 24.8148 3.99326 24.8163 4.65293ZM6.9822 13.7918L29.4044 13.7618V13.2371C29.3407 10.0137 27.7235 8.32252 24.8208 8.07064L24.8222 9.22507C24.8222 9.86974 24.3202 10.381 23.6833 10.381C23.0317 10.3825 22.5415 9.87274 22.5415 9.22806L22.54 8.01367L13.7429 8.02567L13.7444 9.23856C13.7444 9.88473 13.2572 10.3945 12.6055 10.3945C11.9539 10.396 11.4637 9.88773 11.4637 9.24156L11.4622 8.08714C8.57427 8.37649 6.97628 10.0736 6.98072 13.3255L6.9822 13.7918ZM23.0598 20.6061V20.6225C23.0746 21.3122 23.6374 21.8354 24.3201 21.8204C24.9866 21.804 25.5183 21.2327 25.5035 20.5431C25.4724 19.8834 24.9377 19.3452 24.2727 19.3467C23.5915 19.3617 23.0583 19.9164 23.0598 20.6061ZM24.2832 27.3378C23.6019 27.3228 23.0525 26.7546 23.051 26.065C23.0362 25.3753 23.5827 24.8041 24.2639 24.7876H24.2787C24.9748 24.7876 25.5391 25.3558 25.5391 26.0605C25.5405 26.7651 24.9778 27.3363 24.2832 27.3378ZM16.9581 20.6297C16.9878 21.3194 17.552 21.8576 18.2333 21.8276C18.8997 21.7961 19.4314 21.2264 19.4018 20.5368C19.3855 19.8621 18.8375 19.3374 18.1711 19.3389C17.4898 19.3689 16.9567 19.9401 16.9581 20.6297ZM18.2392 27.27C17.558 27.3 16.9952 26.7618 16.9641 26.0721C16.9641 25.3825 17.4958 24.8127 18.177 24.7813C18.8435 24.7798 19.3929 25.3045 19.4077 25.9777C19.4388 26.6688 18.9057 27.2385 18.2392 27.27ZM10.8565 20.682C10.8861 21.3716 11.4504 21.9114 12.1316 21.8799C12.7981 21.8499 13.3298 21.2787 13.2987 20.589C13.2839 19.9144 12.7359 19.3896 12.068 19.3911C11.3867 19.4211 10.855 19.9923 10.8565 20.682ZM12.1375 27.2778C11.4562 27.3093 10.8935 26.7696 10.8624 26.0799C10.8609 25.3903 11.394 24.819 12.0753 24.7891C12.7417 24.7876 13.2912 25.3123 13.306 25.987C13.3371 26.6766 12.8054 27.2478 12.1375 27.2778Z" fill="white"/>
</svg>
