<svg width="20" height="21" viewBox="0 0 20 21" fill="none" xmlns="http://www.w3.org/2000/svg">
<path d="M3.2959 4.64844C3.2959 4.09615 3.74361 3.64844 4.2959 3.64844H18.9999C19.5522 3.64844 19.9999 4.09615 19.9999 4.64844V19.7192C19.9999 20.2715 19.5522 20.7192 18.9999 20.7192H4.2959C3.74361 20.7192 3.2959 20.2715 3.2959 19.7192V4.64844Z" fill="#84949E"/>
<path d="M0 1.28125C0 0.728966 0.447715 0.28125 1 0.28125H15.704C16.2563 0.28125 16.704 0.728965 16.704 1.28125V16.352C16.704 16.9043 16.2563 17.352 15.704 17.352H1C0.447716 17.352 0 16.9043 0 16.352V1.28125Z" fill="#A4B2BB"/>
</svg>
