<svg width="49" height="20" viewBox="0 0 49 20" fill="none" xmlns="http://www.w3.org/2000/svg">
<path d="M5.01989 18.0633L1.15626 14.1997C0.796123 13.8425 0.514567 13.414 0.329621 12.9417C0.144675 12.4693 0.0604157 11.9636 0.0822387 11.4568C0.104062 10.95 0.231485 10.4534 0.456351 9.9987C0.681217 9.54401 0.998567 9.14131 1.38807 8.81637C5.7817 5.28397 10.9427 2.83141 16.4562 1.65576C21.5453 0.521356 26.8217 0.521356 31.9108 1.65577C37.4471 2.83903 42.6269 5.3098 47.0305 8.86788C47.4188 9.19184 47.7354 9.59311 47.9602 10.0461C48.1849 10.4992 48.3129 10.994 48.3359 11.4992C48.3589 12.0044 48.2765 12.5088 48.0939 12.9804C47.9112 13.452 47.6324 13.8804 47.2752 14.2383L43.4115 18.102C42.7927 18.7331 41.9654 19.1177 41.084 19.1841C40.2025 19.2504 39.327 18.994 38.6206 18.4626C37.2211 17.3892 35.7047 16.4776 34.1002 15.7452C33.4659 15.4575 32.9275 14.994 32.5486 14.4097C32.1697 13.8253 31.9662 13.1446 31.9623 12.4482V9.17698C26.9047 7.78608 21.5654 7.78608 16.5078 9.17698V12.4482C16.5039 13.1446 16.3004 13.8253 15.9215 14.4097C15.5426 14.994 15.0041 15.4575 14.3699 15.7452C12.7654 16.4776 11.249 17.3892 9.84943 18.4626C9.13557 18.9999 8.24911 19.2562 7.35864 19.1826C6.46818 19.1089 5.63583 18.7106 5.01989 18.0633Z" fill="#FAFAFA"/>
</svg>
