<svg width="24" height="25" viewBox="0 0 24 25" fill="none" xmlns="http://www.w3.org/2000/svg">
<g id="Iconly/Bold/Discovery">
<g id="Discovery">
<path id="Discovery_2" fill-rule="evenodd" clip-rule="evenodd" d="M1.99989 12.5C1.99989 6.98 6.46989 2.5 11.9999 2.5C17.5199 2.5 21.9999 6.98 21.9999 12.5C21.9999 18.03 17.5199 22.5 11.9999 22.5C6.46989 22.5 1.99989 18.03 1.99989 12.5ZM14.2299 14.3297L15.8499 9.20969C15.9599 8.85969 15.6399 8.52969 15.2899 8.63969L10.1699 10.2397C9.95991 10.3097 9.78991 10.4697 9.72991 10.6797L8.12991 15.8097C8.01991 16.1497 8.34991 16.4797 8.68991 16.3697L13.7899 14.7697C13.9999 14.7097 14.1699 14.5397 14.2299 14.3297Z" fill="#200E32"/>
</g>
</g>
</svg>
