<svg width="44" height="44" viewBox="0 0 44 44" fill="none" xmlns="http://www.w3.org/2000/svg">
<path fill-rule="evenodd" clip-rule="evenodd" d="M14.0579 4H29.1437C34.7039 4 37.7999 7.204 37.7999 12.694V31.288C37.7999 36.868 34.7039 40 29.1437 40H14.0579C8.5859 40 5.3999 36.868 5.3999 31.288V12.694C5.3999 7.204 8.5859 4 14.0579 4ZM14.5441 12.3877V12.3697H19.9243C20.7001 12.3697 21.3301 12.9997 21.3301 13.7719C21.3301 14.5657 20.7001 15.1957 19.9243 15.1957H14.5441C13.7683 15.1957 13.1401 14.5657 13.1401 13.7917C13.1401 13.0177 13.7683 12.3877 14.5441 12.3877ZM14.5441 23.3318H28.6561C29.4301 23.3318 30.0601 22.7018 30.0601 21.9278C30.0601 21.1538 29.4301 20.522 28.6561 20.522H14.5441C13.7683 20.522 13.1401 21.1538 13.1401 21.9278C13.1401 22.7018 13.7683 23.3318 14.5441 23.3318ZM14.5439 31.5576H28.6559C29.3741 31.4856 29.9159 30.8718 29.9159 30.1536C29.9159 29.4156 29.3741 28.8036 28.6559 28.7316H14.5439C14.0039 28.6776 13.4819 28.9296 13.1939 29.3976C12.9059 29.8476 12.9059 30.4416 13.1939 30.9096C13.4819 31.3596 14.0039 31.6296 14.5439 31.5576Z" fill="#4F81FF"/>
</svg>
