<svg width="40" height="40" viewBox="0 0 40 40" fill="none" xmlns="http://www.w3.org/2000/svg">
<path d="M20 29.3391C15.1897 29.3391 10 26.312 10 19.6696C10 13.0271 15.1897 10 20 10C22.6724 10 25.1379 10.8822 26.9655 12.4909C28.9483 14.2553 30 16.7462 30 19.6696C30 22.5929 28.9483 25.0665 26.9655 26.8309C25.1379 28.4396 22.6552 29.3391 20 29.3391Z" fill="url(#paint0_radial_446_762)"/>
<path d="M28.2568 13.9219C29.1757 15.4095 29.655 17.1808 29.655 19.1511C29.655 22.0744 28.6033 24.548 26.6206 26.3124C24.793 27.9211 22.3102 28.8206 19.655 28.8206C16.5412 28.8206 13.2688 27.5492 11.3481 24.8525C13.2033 27.9073 16.6912 29.3396 19.9999 29.3396C22.655 29.3396 25.1378 28.4401 26.9654 26.8314C28.9481 25.067 29.9999 22.5933 29.9999 19.67C29.9999 17.4662 29.4016 15.5081 28.2568 13.9219Z" fill="#EB8F00"/>
<path opacity="0.8" d="M13.7326 23.8961C15.3989 23.8961 16.7498 22.5408 16.7498 20.8689C16.7498 19.1971 15.3989 17.8418 13.7326 17.8418C12.0662 17.8418 10.7153 19.1971 10.7153 20.8689C10.7153 22.5408 12.0662 23.8961 13.7326 23.8961Z" fill="url(#paint1_radial_446_762)"/>
<path opacity="0.8" d="M26.4049 23.8961C28.0713 23.8961 29.4222 22.5408 29.4222 20.8689C29.4222 19.1971 28.0713 17.8418 26.4049 17.8418C24.7386 17.8418 23.3877 19.1971 23.3877 20.8689C23.3877 22.5408 24.7386 23.8961 26.4049 23.8961Z" fill="url(#paint2_radial_446_762)"/>
<path d="M17.1689 14.9493C17.5671 14.9545 17.6827 14.4079 17.2602 14.3179C16.9447 14.2539 16.5982 14.2453 16.2551 14.2885C15.2947 14.394 14.4671 14.8905 13.9275 15.5374C13.6585 15.8695 14.0982 16.219 14.3913 15.9716C15.1413 15.361 16.1309 14.9579 17.1689 14.9493Z" fill="#422B0D"/>
<path d="M22.8343 15.0667C22.4395 15.1117 22.2705 14.5789 22.6808 14.4474C22.9895 14.354 23.3326 14.3108 23.6774 14.3194C24.6429 14.3298 25.5153 14.7415 26.117 15.3331C26.417 15.6375 26.0136 16.0285 25.6981 15.8105C24.8912 15.276 23.867 14.9733 22.8343 15.0667Z" fill="#422B0D"/>
<path d="M20.0689 25.4306C21.931 25.4306 23.1379 24.0641 23.4655 23.4241C23.5862 23.1819 23.5862 22.9743 23.4827 22.8878C23.3965 22.8186 23.2758 22.8186 23.1207 22.8878C23.0689 22.9051 23.0172 22.9397 22.9655 22.9743C22.1379 23.5625 21.1207 23.9257 20.0689 23.9257C19.0172 23.9257 18 23.5625 17.1724 22.9916C17.1207 22.957 17.0689 22.9224 17.0172 22.9051C16.862 22.8359 16.7414 22.8359 16.6551 22.9051C16.5517 23.0089 16.5517 23.1992 16.6724 23.4414C17 24.0641 18.2069 25.4306 20.0689 25.4306Z" fill="#422B0D"/>
<path d="M17.9313 19.4159L17.8968 19.3813C17.8795 19.364 17.8278 19.3121 17.8106 19.2948C17.7761 19.2602 17.7416 19.2429 17.6899 19.191C17.6382 19.1564 17.5864 19.1045 17.5175 19.0699C17.4485 19.0353 17.3795 18.9834 17.3106 18.9488C17.2416 18.9142 17.1554 18.8797 17.0692 18.8451C16.983 18.8105 16.8968 18.7932 16.8106 18.7759C16.7244 18.7586 16.6382 18.7586 16.5347 18.7586H16.5002H16.4485C16.3968 18.7586 16.3968 18.7586 16.3795 18.7586C16.345 18.7586 16.2933 18.7759 16.2588 18.7759C16.1726 18.7932 16.0864 18.8105 16.0002 18.8451C15.914 18.8797 15.8278 18.8969 15.7588 18.9488C15.6899 18.9834 15.6209 19.018 15.5519 19.0699C15.4313 19.1564 15.3278 19.2429 15.2588 19.2948C15.1899 19.364 15.1554 19.3986 15.1554 19.3986L15.1209 19.4332C14.914 19.6408 14.5692 19.6408 14.3278 19.4678C14.1554 19.3294 14.1037 19.0872 14.1899 18.9142L14.2071 18.8624C14.2244 18.8278 14.2416 18.7759 14.2761 18.724C14.345 18.6029 14.4657 18.4299 14.6554 18.2396C14.7416 18.1531 14.8623 18.0493 14.983 17.9629C15.1037 17.8764 15.2588 17.7899 15.414 17.7207C15.5692 17.6515 15.7588 17.5823 15.9313 17.5477C16.0175 17.5304 16.1209 17.5131 16.2244 17.4958C16.2761 17.4958 16.345 17.4785 16.3623 17.4785H16.5002C16.6899 17.4785 16.8795 17.4958 17.0692 17.5304C17.2588 17.565 17.4313 17.6342 17.5864 17.7034C17.7416 17.7726 17.8968 17.8591 18.0175 17.9456C18.1554 18.0321 18.2588 18.1185 18.345 18.2223C18.4313 18.3088 18.5175 18.3953 18.5692 18.4818C18.6037 18.5164 18.6209 18.5683 18.6554 18.6029C18.6726 18.6375 18.7071 18.6721 18.7244 18.7067C18.7761 18.7759 18.7761 18.8105 18.7933 18.8451C18.8106 18.8797 18.8106 18.8797 18.8106 18.8797C18.9313 19.1391 18.7933 19.4332 18.5002 19.537C18.345 19.6235 18.0864 19.5716 17.9313 19.4159Z" fill="#422B0D"/>
<path d="M24.9846 19.3537C24.9846 19.3537 24.9725 19.3416 24.9501 19.3191C24.9311 19.3 24.888 19.2516 24.8621 19.2326C24.8294 19.2049 24.7897 19.172 24.7432 19.134C24.6932 19.0959 24.6363 19.0544 24.5742 19.0112C24.5104 18.9714 24.4415 18.9299 24.3673 18.8935C24.2949 18.8538 24.2121 18.8261 24.1294 18.7949C24.0466 18.7655 23.9587 18.75 23.8708 18.7309C23.7828 18.7171 23.6915 18.7102 23.6001 18.7102H23.6242H23.6225H23.619H23.6121H23.5984H23.5708L23.5173 18.7119C23.4725 18.7119 23.4656 18.7154 23.4483 18.7171C23.4208 18.7171 23.3708 18.7258 23.3277 18.7327C23.2397 18.7517 23.1518 18.7673 23.069 18.7967C22.988 18.8278 22.9052 18.8555 22.8328 18.8953C22.7587 18.9333 22.6897 18.9731 22.6259 19.0129C22.5018 19.0959 22.4001 19.179 22.3328 19.2412C22.2639 19.3035 22.2242 19.3416 22.2242 19.3416L22.1811 19.3848C21.9725 19.5872 21.6208 19.5993 21.3932 19.4142C21.2139 19.2672 21.169 19.0406 21.2587 18.852C21.2587 18.852 21.2673 18.8347 21.2846 18.8001C21.3018 18.7673 21.3225 18.7154 21.3604 18.6548C21.4311 18.532 21.5484 18.359 21.7346 18.1774C21.8277 18.0875 21.9363 17.9923 22.0656 17.9058C22.1915 17.8159 22.338 17.7346 22.5001 17.6637C22.6621 17.5945 22.838 17.5339 23.0242 17.4959C23.119 17.4786 23.207 17.4613 23.3225 17.4509C23.3759 17.4457 23.4397 17.4405 23.4673 17.4388L23.6001 17.4336C23.7949 17.4371 23.988 17.4578 24.1759 17.4941C24.3621 17.5322 24.538 17.5927 24.7001 17.6619C24.8604 17.7328 25.0087 17.8141 25.1346 17.9041C25.2639 17.9906 25.3708 18.084 25.4639 18.1757C25.557 18.2656 25.6311 18.3556 25.6932 18.4369C25.7225 18.4784 25.7501 18.5164 25.7759 18.5528C25.8001 18.5926 25.8242 18.6289 25.8432 18.6617C25.8897 18.7344 25.8932 18.7621 25.9104 18.7949C25.9225 18.8226 25.9294 18.8382 25.9294 18.8382C26.0449 19.0959 25.9052 19.3883 25.6173 19.4921C25.3915 19.5734 25.138 19.5111 24.9846 19.3537Z" fill="#422B0D"/>
<rect x="0.75" y="0.75" width="38.5" height="38.5" rx="4.25" stroke="white" stroke-width="1.5" stroke-dasharray="6 6"/>
<defs>
<radialGradient id="paint0_radial_446_762" cx="0" cy="0" r="1" gradientUnits="userSpaceOnUse" gradientTransform="translate(20 19.6695) scale(9.82064 9.85287)">
<stop offset="0.5" stop-color="#FDE030"/>
<stop offset="0.9188" stop-color="#F7C02B"/>
<stop offset="1" stop-color="#F4A223"/>
</radialGradient>
<radialGradient id="paint1_radial_446_762" cx="0" cy="0" r="1" gradientUnits="userSpaceOnUse" gradientTransform="translate(13.7327 20.8687) scale(3.28242 3.12838)">
<stop stop-color="#ED7770"/>
<stop offset="0.9" stop-color="#ED7770" stop-opacity="0"/>
</radialGradient>
<radialGradient id="paint2_radial_446_762" cx="0" cy="0" r="1" gradientUnits="userSpaceOnUse" gradientTransform="translate(26.4053 20.8687) scale(3.28242 3.12838)">
<stop stop-color="#ED7770"/>
<stop offset="0.9" stop-color="#ED7770" stop-opacity="0"/>
</radialGradient>
</defs>
</svg>
