<svg width="44" height="44" viewBox="0 0 44 44" fill="none" xmlns="http://www.w3.org/2000/svg">
<path fill-rule="evenodd" clip-rule="evenodd" d="M24.2101 9.3845H29.7361C36.3781 9.3845 39.6181 12.9305 39.6001 20.2025V28.9685C39.6001 35.9165 35.3161 40.2005 28.3501 40.2005H14.8321C7.9021 40.2005 3.6001 35.9165 3.6001 28.9505V15.4325C3.6001 7.9805 6.9121 4.2005 13.4461 4.2005H16.2901C17.9659 4.1825 19.5301 4.9565 20.5561 6.2705L22.1401 8.3765C22.6441 9.0065 23.4001 9.3845 24.2101 9.3845ZM13.2662 28.1226H29.9342C30.6722 28.1226 31.2662 27.5106 31.2662 26.7726C31.2662 26.0166 30.6722 25.4226 29.9342 25.4226H13.2662C12.5102 25.4226 11.9162 26.0166 11.9162 26.7726C11.9162 27.5106 12.5102 28.1226 13.2662 28.1226Z" fill="#D3D3D3"/>
</svg>
