<svg width="44" height="44" viewBox="0 0 44 44" fill="none" xmlns="http://www.w3.org/2000/svg">
<path d="M16.4426 38.1922V32.6883C16.4426 31.2833 17.5899 30.1443 19.0052 30.1443H24.1787C24.8583 30.1443 25.5101 30.4123 25.9907 30.8894C26.4713 31.3665 26.7413 32.0136 26.7413 32.6883V38.1922C26.737 38.7763 26.9677 39.3379 27.3823 39.7525C27.7968 40.167 28.3609 40.4001 28.9493 40.4001H32.4789C34.1273 40.4044 35.7098 39.7573 36.8769 38.6016C38.0441 37.4459 38.7 35.8767 38.7 34.2402V18.5605C38.7 17.2386 38.1097 15.9847 37.0883 15.1365L25.0812 5.61671C22.9926 3.94756 20 4.00145 17.9737 5.74471L6.24062 15.1365C5.17093 15.9597 4.53159 17.2173 4.5 18.5605V34.2242C4.5 37.6351 7.28529 40.4001 10.7211 40.4001H14.1701C15.3922 40.4002 16.3854 39.4213 16.3943 38.2082L16.4426 38.1922Z" fill="#4F81FF"/>
</svg>
