<svg width="50" height="54" viewBox="0 0 50 54" fill="none" xmlns="http://www.w3.org/2000/svg">
<path fill-rule="evenodd" clip-rule="evenodd" d="M37.9985 42.5579L43.491 35.3071C45.8718 32.1641 47.5655 29.1267 48.5721 26.195C49.6141 23.2588 50.0197 20.4666 49.789 17.8186C49.5733 15.1507 48.7923 12.6806 47.4461 10.4086C46.1149 8.11657 44.2616 6.07091 41.8862 4.27155C39.5108 2.4722 37.0397 1.24213 34.4729 0.58133C31.9211 -0.0993615 29.3319 -0.182275 26.7053 0.332588C24.0937 0.827559 21.5157 1.97413 18.9714 3.77231C16.4421 5.5506 13.987 8.01125 11.6062 11.1543L6.11366 18.4051C3.7931 21.4685 2.14458 24.4462 1.16811 27.3381C0.206706 30.2102 -0.16124 32.9526 0.0642686 35.5653C0.325148 38.1736 1.13626 40.6038 2.49761 42.856C3.87926 45.1236 5.75777 47.1571 8.13314 48.9564C10.5085 50.7558 12.9646 52.0057 15.5013 52.7063C18.0583 53.4223 20.6072 53.5373 23.148 53.0513C25.7242 52.5609 28.2544 51.4564 30.7384 49.7378C33.2579 48.0146 35.6779 45.6213 37.9985 42.5579ZM27.4235 37.9653C25.6375 38.3898 23.7754 38.401 21.98 37.9948C19.9954 37.5458 18.1569 36.6013 16.6361 35.2496C15.1152 33.8978 13.9616 32.1828 13.2828 30.2646C13.0986 29.744 13.3713 29.1726 13.8919 28.9883C14.4126 28.8041 14.984 29.0768 15.1682 29.5974C15.7343 31.1971 16.6964 32.6274 17.9647 33.7547C19.2331 34.882 20.7663 35.6696 22.4214 36.0441C24.0764 36.4186 25.7994 36.3677 27.4295 35.8962C28.32 35.6386 29.167 35.2601 29.9478 34.7739L33.7885 29.7038H30.7814C30.2291 29.7038 29.7814 29.2561 29.7814 28.7038C29.7814 28.1515 30.2291 27.7038 30.7814 27.7038H35.2902C36.5545 25.9606 37.5305 24.3617 38.2181 22.907C39.0287 21.2042 39.4835 19.6547 39.5827 18.2584C39.6818 16.8621 39.4607 15.6144 38.9192 14.5155C38.3777 13.4166 37.5283 12.4288 36.3711 11.5522C35.2139 10.6756 34.0228 10.1178 32.798 9.87873C31.5935 9.65506 30.3326 9.78001 29.0153 10.2536C27.7183 10.7425 26.36 11.6077 24.9404 12.8491C24.4673 13.2718 23.9836 13.743 23.4891 14.2629C24.7628 14.1394 26.0528 14.2192 27.3101 14.5037C29.2947 14.9527 31.1332 15.8971 32.654 17.2489C34.1749 18.6006 35.3285 20.3156 36.0073 22.2338C36.1916 22.7545 35.9188 23.3259 35.3982 23.5101C34.8775 23.6944 34.3061 23.4217 34.1219 22.901C33.5558 21.3013 32.5937 19.8711 31.3254 18.7438C30.057 17.6165 28.5238 16.8288 26.8687 16.4543C25.2137 16.0799 23.4907 16.1307 21.8606 16.6023C21.6762 16.6556 21.4937 16.7141 21.3133 16.7777C21.0493 17.1087 20.7827 17.452 20.5133 17.8075L16.7356 22.7947H18.5087C19.061 22.7947 19.5087 23.2424 19.5087 23.7947C19.5087 24.347 19.061 24.7947 18.5087 24.7947H15.2206L14.9756 25.118C13.4688 27.1073 12.3327 28.9234 11.5673 30.5665C10.802 32.2095 10.3848 33.7093 10.3158 35.0659C10.2468 36.4224 10.483 37.6501 11.0245 38.7491C11.6014 39.8435 12.4684 40.829 13.6257 41.7056C14.7626 42.5668 15.9258 43.1192 17.1152 43.3628C18.34 43.6018 19.5859 43.4968 20.8527 43.0476C22.1196 42.5984 23.4402 41.783 24.8146 40.6013C25.6592 39.8752 26.5288 38.9965 27.4235 37.9653Z" fill="#4F81FF"/>
</svg>
