<svg width="57" height="60" viewBox="0 0 57 60" fill="none" xmlns="http://www.w3.org/2000/svg">
<path fill-rule="evenodd" clip-rule="evenodd" d="M42.7381 47.8662L48.9157 39.711C51.5935 36.176 53.4985 32.7597 54.6306 29.4623C55.8026 26.1599 56.2588 23.0195 55.9993 20.0411C55.7567 17.0404 54.8783 14.2623 53.3641 11.7068C51.8668 9.12896 49.7824 6.82814 47.1107 4.80435C44.4391 2.78056 41.6597 1.39706 38.7727 0.653839C35.9027 -0.111756 32.9905 -0.205011 30.0362 0.374072C27.0989 0.930782 24.1994 2.22037 21.3377 4.24284C18.4929 6.24294 15.7316 9.01051 13.0538 12.5456L6.87623 20.7008C4.26622 24.1463 2.41207 27.4954 1.31381 30.7481C0.232489 33.9783 -0.181352 37.0628 0.0722853 40.0015C0.365705 42.9351 1.27799 45.6684 2.80914 48.2015C4.36313 50.7519 6.47595 53.039 9.1476 55.0628C11.8193 57.0866 14.5816 58.4925 17.4347 59.2805C20.3107 60.0857 23.1775 60.2151 26.0353 59.6685C28.9329 59.1169 31.7786 57.8746 34.5725 55.9416C37.4062 54.0036 40.1281 51.3118 42.7381 47.8662ZM30.9844 42.5381C28.9428 43.0514 26.8067 43.0779 24.7491 42.6123C22.5375 42.1119 20.4888 41.0594 18.794 39.5531C17.0992 38.0467 15.8136 36.1356 15.0572 33.998C14.8729 33.4773 15.1456 32.9059 15.6663 32.7217C16.1869 32.5374 16.7584 32.8101 16.9426 33.3308C17.5863 35.1499 18.6804 36.7763 20.1226 38.0582C21.5649 39.3401 23.3084 40.2358 25.1905 40.6616C27.0725 41.0874 29.0318 41.0296 30.8855 40.4934C31.7966 40.2299 32.6677 39.8549 33.4799 39.3797L38.0974 33.284H34.6208C34.0686 33.284 33.6208 32.8363 33.6208 32.284C33.6208 31.7318 34.0686 31.284 34.6208 31.284H39.6013C41.0674 29.2749 42.1954 27.435 42.9851 25.7642C43.8968 23.8491 44.4084 22.1063 44.5199 20.5358C44.6314 18.9653 44.3827 17.5621 43.7736 16.3261C43.1646 15.0901 42.2093 13.9791 40.9077 12.9931C39.6061 12.0072 38.2666 11.3798 36.889 11.1109C35.5342 10.8594 34.116 10.9999 32.6344 11.5325C31.1757 12.0825 29.6479 13.0555 28.0513 14.4517C27.4774 14.9645 26.8895 15.5409 26.2877 16.1808C27.7535 16.0227 29.2407 16.1067 30.689 16.4344C32.9006 16.9348 34.9494 17.9872 36.6442 19.4936C38.339 21 39.6246 22.9111 40.381 25.0487C40.5652 25.5693 40.2925 26.1408 39.7719 26.325C39.2512 26.5092 38.6798 26.2365 38.4955 25.7159C37.8518 23.8968 36.7578 22.2704 35.3155 20.9885C33.8732 19.7066 32.1297 18.8109 30.2477 18.3851C28.3656 17.9592 26.4063 18.0171 24.5527 18.5533C24.4065 18.5955 24.2613 18.6407 24.1173 18.6887C23.773 19.1166 23.4245 19.5633 23.072 20.0287L18.7285 25.7626H20.8173C21.3696 25.7626 21.8173 26.2103 21.8173 26.7626C21.8173 27.3149 21.3696 27.7626 20.8173 27.7626H17.2135L16.8436 28.2511C15.1487 30.4884 13.8709 32.5311 13.0101 34.3791C12.1493 36.2271 11.6801 37.914 11.6025 39.4397C11.5249 40.9654 11.7906 42.3463 12.3996 43.5823C13.0484 44.8132 14.0236 45.9217 15.3252 46.9076C16.6039 47.8763 17.9122 48.4976 19.25 48.7715C20.6276 49.0404 22.0288 48.9222 23.4537 48.417C24.8786 47.9118 26.3639 46.9947 27.9098 45.6656C28.9039 44.8109 29.9287 43.7684 30.9844 42.5381Z" fill="white"/>
</svg>
