<svg width="13" height="12" viewBox="0 0 13 12" fill="none" xmlns="http://www.w3.org/2000/svg">
<path fill-rule="evenodd" clip-rule="evenodd" d="M5.44604 1.68896H2.19604V10.189H10.696V6.93896C10.696 6.52475 11.0318 6.18896 11.446 6.18896C11.8603 6.18896 12.196 6.52475 12.196 6.93896V10.439C12.196 11.1293 11.6364 11.689 10.946 11.689H1.94605C1.25569 11.689 0.696045 11.1293 0.696045 10.439V1.43896C0.696045 0.748609 1.25569 0.188965 1.94604 0.188965H5.44604C5.86026 0.188965 6.19604 0.524751 6.19604 0.938965C6.19604 1.35318 5.86026 1.68896 5.44604 1.68896ZM8.44604 0.188965H11.446C11.5477 0.188965 11.6447 0.209204 11.7331 0.245874C11.8216 0.282474 11.9045 0.336727 11.9764 0.408635C12.1228 0.555081 12.196 0.747023 12.196 0.938965V3.93896C12.196 4.35318 11.8603 4.68896 11.446 4.68896C11.0318 4.68896 10.696 4.35318 10.696 3.93896V2.74963L5.97638 7.4693C5.68348 7.76219 5.20861 7.76219 4.91571 7.4693C4.62282 7.1764 4.62282 6.70153 4.91571 6.40863L9.63538 1.68896H8.44604C8.03183 1.68896 7.69604 1.35318 7.69604 0.938965C7.69604 0.524751 8.03183 0.188965 8.44604 0.188965Z" fill="white"/>
</svg>
