<svg width="6" height="34" viewBox="0 0 6 34" fill="none" xmlns="http://www.w3.org/2000/svg">
<path d="M3.17807 18.92C3.885 18.92 4.45807 18.0604 4.45807 17C4.45807 15.9396 3.885 15.08 3.17807 15.08C2.47115 15.08 1.89807 15.9396 1.89807 17C1.89807 18.0604 2.47115 18.92 3.17807 18.92Z" fill="#3D3D3D" stroke="#3D3D3D" stroke-width="2" stroke-linecap="round" stroke-linejoin="round"/>
<path d="M3.17807 33C3.885 33 4.45807 32.1404 4.45807 31.08C4.45807 30.0196 3.885 29.16 3.17807 29.16C2.47115 29.16 1.89807 30.0196 1.89807 31.08C1.89807 32.1404 2.47115 33 3.17807 33Z" fill="#3D3D3D" stroke="#3D3D3D" stroke-width="2" stroke-linecap="round" stroke-linejoin="round"/>
<path d="M3.17807 4.84C3.885 4.84 4.45807 3.98039 4.45807 2.92C4.45807 1.85961 3.885 1 3.17807 1C2.47115 1 1.89807 1.85961 1.89807 2.92C1.89807 3.98039 2.47115 4.84 3.17807 4.84Z" fill="#3D3D3D" stroke="#3D3D3D" stroke-width="2" stroke-linecap="round" stroke-linejoin="round"/>
</svg>
