<svg width="27" height="40" viewBox="0 0 27 40" fill="none" xmlns="http://www.w3.org/2000/svg">
<path d="M24.9091 16.7273V20C24.9091 23.0379 23.7023 25.9514 21.5541 28.0996C19.406 30.2477 16.4925 31.4545 13.4545 31.4545M13.4545 31.4545C10.4166 31.4545 7.5031 30.2477 5.35496 28.0996C3.20681 25.9514 2 23.0379 2 20V16.7273M13.4545 31.4545V38M6.90909 38H20M13.4545 2C12.1526 2 10.9039 2.51721 9.98329 3.43784C9.06266 4.35847 8.54545 5.60712 8.54545 6.90909V20C8.54545 21.302 9.06266 22.5506 9.98329 23.4713C10.9039 24.3919 12.1526 24.9091 13.4545 24.9091C14.7565 24.9091 16.0052 24.3919 16.9258 23.4713C17.8464 22.5506 18.3636 21.302 18.3636 20V6.90909C18.3636 5.60712 17.8464 4.35847 16.9258 3.43784C16.0052 2.51721 14.7565 2 13.4545 2Z" stroke="#3D3D3D" stroke-width="3" stroke-linecap="round" stroke-linejoin="round"/>
</svg>
