<svg width="42" height="42" viewBox="0 0 42 42" fill="none" xmlns="http://www.w3.org/2000/svg">
<g filter="url(#filter0_b_348_291)">
<rect x="0.399902" width="41.6" height="41.6" rx="20.8" fill="#F95A39" fill-opacity="0.3"/>
<path fill-rule="evenodd" clip-rule="evenodd" d="M21.3573 23.6955H21.0425C18.8795 23.6955 17.1262 21.9632 17.1262 19.8281V15.6672C17.1262 13.5312 18.8795 11.7998 21.0425 11.7998H21.3573C23.5203 11.7998 25.2745 13.5312 25.2745 15.6672V19.8281C25.2745 21.9632 23.5203 23.6955 21.3573 23.6955ZM27.1062 19.7043C27.1062 19.2282 27.4968 18.8434 27.9781 18.8434C28.4593 18.8434 28.8499 19.2282 28.8499 19.7043C28.8499 23.5777 25.8804 26.7761 22.0722 27.2057V28.9388C22.0722 29.414 21.6816 29.7997 21.2004 29.7997C20.7182 29.7997 20.3285 29.414 20.3285 28.9388V27.2057C16.5194 26.7761 13.5499 23.5777 13.5499 19.7043C13.5499 19.2282 13.9405 18.8434 14.4218 18.8434C14.903 18.8434 15.2936 19.2282 15.2936 19.7043C15.2936 22.9199 17.9432 25.5363 21.2004 25.5363C24.4567 25.5363 27.1062 22.9199 27.1062 19.7043Z" fill="white"/>
<rect x="0.899902" y="0.5" width="40.6" height="40.6" rx="20.3" stroke="white" stroke-opacity="0.1"/>
</g>
<defs>
<filter id="filter0_b_348_291" x="-29.6001" y="-30" width="101.6" height="101.6" filterUnits="userSpaceOnUse" color-interpolation-filters="sRGB">
<feFlood flood-opacity="0" result="BackgroundImageFix"/>
<feGaussianBlur in="BackgroundImageFix" stdDeviation="15"/>
<feComposite in2="SourceAlpha" operator="in" result="effect1_backgroundBlur_348_291"/>
<feBlend mode="normal" in="SourceGraphic" in2="effect1_backgroundBlur_348_291" result="shape"/>
</filter>
</defs>
</svg>
