<svg width="37" height="37" viewBox="0 0 37 37" fill="none" xmlns="http://www.w3.org/2000/svg">
<circle cx="18.5" cy="18.5" r="18.5" fill="#F95A39"/>
<path d="M7 7.00302L29 29.003M21 15.343V10.003C21.0007 9.25905 20.725 8.54134 20.2264 7.98922C19.7277 7.4371 19.0417 7.08996 18.3015 7.0152C17.5613 6.94043 16.8197 7.14336 16.2207 7.58461C15.6217 8.02586 15.208 8.67393 15.06 9.40302M23 22.953C22.0238 23.9494 20.7721 24.6315 19.4056 24.9116C18.0391 25.1918 16.62 25.0572 15.3305 24.5253C14.041 23.9934 12.9398 23.0883 12.1682 21.9262C11.3966 20.7641 10.9898 19.3979 11 18.003V16.003M25 16.003V18.003C24.9996 18.4155 24.9628 18.8271 24.89 19.233M18 25.003V29.003M14 29.003H22M15 15.003V18.003C15.0005 18.596 15.1768 19.1755 15.5064 19.6684C15.8361 20.1612 16.3045 20.5453 16.8523 20.7722C17.4002 20.999 18.0029 21.0584 18.5845 20.9429C19.1661 20.8273 19.7005 20.542 20.12 20.123L15 15.003Z" stroke="#FAFAFA" stroke-width="2" stroke-linecap="round" stroke-linejoin="round"/>
</svg>
