<svg width="24" height="24" viewBox="0 0 24 24" fill="none" xmlns="http://www.w3.org/2000/svg">
<path d="M21.4409 11.0499L12.2509 20.2399C11.1251 21.3658 9.59808 21.9983 8.0059 21.9983C6.41372 21.9983 4.88674 21.3658 3.7609 20.2399C2.63506 19.1141 2.00256 17.5871 2.00256 15.9949C2.00256 14.4027 2.63506 12.8758 3.7609 11.7499L12.9509 2.55992C13.7015 1.80936 14.7194 1.3877 15.7809 1.3877C16.8424 1.3877 17.8603 1.80936 18.6109 2.55992C19.3615 3.31048 19.7831 4.32846 19.7831 5.38992C19.7831 6.45137 19.3615 7.46936 18.6109 8.21992L9.4109 17.4099C9.03562 17.7852 8.52663 17.996 7.9959 17.996C7.46517 17.996 6.95618 17.7852 6.5809 17.4099C6.20562 17.0346 5.99479 16.5256 5.99479 15.9949C5.99479 15.4642 6.20562 14.9552 6.5809 14.5799L15.0709 6.09992" stroke="#B6B6B6" stroke-width="2" stroke-linecap="round" stroke-linejoin="round"/>
</svg>
