<svg width="44" height="36" viewBox="0 0 44 36" fill="none" xmlns="http://www.w3.org/2000/svg">
<path d="M30.9026 34V30.4444C30.9026 28.5585 30.1534 26.7497 28.8198 25.4161C27.4862 24.0825 25.6774 23.3333 23.7915 23.3333H9.56924C7.68326 23.3333 5.87452 24.0825 4.54093 25.4161C3.20733 26.7497 2.45813 28.5585 2.45813 30.4444V34M41.5692 34V30.4444C41.5681 28.8688 41.0437 27.3383 40.0783 26.093C39.113 24.8477 37.7615 23.9583 36.2359 23.5644M29.1248 2.23111C30.6544 2.62276 32.0102 3.51236 32.9784 4.75966C33.9466 6.00697 34.4721 7.54103 34.4721 9.12C34.4721 10.699 33.9466 12.233 32.9784 13.4803C32.0102 14.7276 30.6544 15.6172 29.1248 16.0089M23.7915 9.11111C23.7915 13.0385 20.6077 16.2222 16.6804 16.2222C12.753 16.2222 9.56924 13.0385 9.56924 9.11111C9.56924 5.18375 12.753 2 16.6804 2C20.6077 2 23.7915 5.18375 23.7915 9.11111Z" stroke="#3D3D3D" stroke-width="3" stroke-linecap="round" stroke-linejoin="round"/>
</svg>
