<svg width="49" height="48" viewBox="0 0 49 48" fill="none" xmlns="http://www.w3.org/2000/svg">
<circle cx="24.2" cy="24" r="24" fill="#4F81FF"/>
<path d="M31.9462 25.1965C31.8614 25.2835 31.5414 25.6555 31.2433 25.9615C29.4956 27.886 24.9364 31.036 22.5502 31.9975C22.1878 32.152 21.2716 32.479 20.782 32.5C20.313 32.5 19.8658 32.392 19.4391 32.173C18.9072 31.867 18.4805 31.3855 18.2467 30.817C18.0962 30.4225 17.8624 29.242 17.8624 29.221C17.6286 27.9295 17.5 25.831 17.5 23.512C17.5 21.3025 17.6286 19.2895 17.82 17.9785C17.8419 17.9575 18.0757 16.4905 18.3315 15.988C18.8005 15.07 19.7168 14.5 20.6973 14.5H20.782C21.4206 14.5225 22.7635 15.0925 22.7635 15.1135C25.0212 16.0765 29.4752 19.072 31.2652 21.0625C31.2652 21.0625 31.7694 21.574 31.9886 21.8935C32.3305 22.3525 32.5 22.921 32.5 23.4895C32.5 24.124 32.3086 24.715 31.9462 25.1965Z" fill="white"/>
</svg>
