<svg width="48" height="48" viewBox="0 0 48 48" fill="none" xmlns="http://www.w3.org/2000/svg">
<circle cx="24" cy="24" r="24" fill="#3694FF"/>
<path d="M21.4103 27.4022C21.4771 27.3615 21.54 27.3124 21.5977 27.2547L26.4187 22.4337C26.8093 22.0431 26.8093 21.41 26.4187 21.0195C26.0282 20.6289 25.395 20.6289 25.0045 21.0195L20.1835 25.8405C20.1264 25.8976 20.0776 25.9599 20.0372 26.0258L14.0762 22.381C13.1832 21.835 13.3642 20.488 14.3702 20.197L30.4602 15.549C31.3752 15.284 32.2212 16.138 31.9472 17.05L27.1732 33.014C26.8742 34.014 25.5332 34.186 24.9912 33.294L21.4103 27.4022Z" fill="white"/>
</svg>
