<svg width="44" height="44" viewBox="0 0 44 44" fill="none" xmlns="http://www.w3.org/2000/svg">
<path fill-rule="evenodd" clip-rule="evenodd" d="M36.7242 24.4441C37.3681 24.7861 37.8647 25.3261 38.2142 25.8661C38.8949 26.9821 38.8397 28.3501 38.1774 29.5561L36.8898 31.7161C36.2092 32.8681 34.9399 33.5881 33.6338 33.5881C32.99 33.5881 32.2726 33.4081 31.6839 33.0481C31.2057 32.7421 30.6538 32.6341 30.0651 32.6341C28.244 32.6341 26.7172 34.1281 26.662 35.9101C26.662 37.9801 24.9697 39.6001 22.8542 39.6001H20.3525C18.2186 39.6001 16.5263 37.9801 16.5263 35.9101C16.4895 34.1281 14.9627 32.6341 13.1415 32.6341C12.5345 32.6341 11.9826 32.7421 11.5228 33.0481C10.9341 33.4081 10.1983 33.5881 9.57286 33.5881C8.2484 33.5881 6.97913 32.8681 6.29851 31.7161L5.02924 29.5561C4.34861 28.3861 4.31182 26.9821 4.99245 25.8661C5.28677 25.3261 5.83863 24.7861 6.46406 24.4441C6.97913 24.1921 7.31024 23.7781 7.62296 23.2921C8.54273 21.7441 7.99087 19.7101 6.42727 18.7921C4.60615 17.7661 4.0175 15.4801 5.06603 13.6981L6.29851 11.5741C7.36543 9.7921 9.64644 9.1621 11.486 10.2061C13.0863 11.0701 15.165 10.4941 16.1032 8.9641C16.3975 8.4601 16.563 7.9201 16.5263 7.3801C16.4895 6.6781 16.6918 6.0121 17.0413 5.4721C17.7219 4.3561 18.9544 3.6361 20.2973 3.6001H22.891C24.2523 3.6001 25.4847 4.3561 26.1654 5.4721C26.4965 6.0121 26.7172 6.6781 26.662 7.3801C26.6252 7.9201 26.7908 8.4601 27.0851 8.9641C28.0233 10.4941 30.1019 11.0701 31.7207 10.2061C33.5418 9.1621 35.8413 9.7921 36.8898 11.5741L38.1223 13.6981C39.1892 15.4801 38.6005 17.7661 36.761 18.7921C35.1974 19.7101 34.6456 21.7441 35.5837 23.2921C35.878 23.7781 36.2092 24.1921 36.7242 24.4441ZM16.3973 21.6179C16.3973 24.4439 18.7335 26.6939 21.6216 26.6939C24.5096 26.6939 26.7906 24.4439 26.7906 21.6179C26.7906 18.7919 24.5096 16.5239 21.6216 16.5239C18.7335 16.5239 16.3973 18.7919 16.3973 21.6179Z" fill="#D3D3D3"/>
</svg>
