<svg width="110" height="106" viewBox="0 0 110 106" fill="none" xmlns="http://www.w3.org/2000/svg">
<path d="M54.948 105.878C28.6123 105.878 0.199951 89.305 0.199951 52.939C0.199951 16.573 28.6123 0 54.948 0C69.579 0 83.0772 4.82986 93.0829 13.6372C103.938 23.297 109.696 36.9342 109.696 52.939C109.696 68.9438 103.938 82.4864 93.0829 92.1461C83.0772 100.953 69.4846 105.878 54.948 105.878Z" fill="url(#paint0_radial_296_137)"/>
<path d="M100.153 21.469C105.184 29.6135 107.808 39.3111 107.808 50.0977C107.808 66.1025 102.05 79.6451 91.1951 89.3048C81.1894 98.1122 67.5968 103.037 53.0602 103.037C36.0128 103.037 18.0969 96.0761 7.58154 81.3119C17.7383 98.0364 36.834 105.878 54.9481 105.878C69.4846 105.878 83.0772 100.953 93.0829 92.1459C103.938 82.4862 109.696 68.9436 109.696 52.9388C109.696 40.8737 106.421 30.1533 100.153 21.469Z" fill="#EB8F00"/>
<path opacity="0.8" d="M20.636 76.075C29.7591 76.075 37.1548 68.655 37.1548 59.502C37.1548 50.349 29.7591 42.929 20.636 42.929C11.5129 42.929 4.11719 50.349 4.11719 59.502C4.11719 68.655 11.5129 76.075 20.636 76.075Z" fill="url(#paint1_radial_296_137)"/>
<path opacity="0.8" d="M90.0152 76.075C99.1382 76.075 106.534 68.655 106.534 59.502C106.534 50.349 99.1382 42.929 90.0152 42.929C80.8921 42.929 73.4963 50.349 73.4963 59.502C73.4963 68.655 80.8921 76.075 90.0152 76.075Z" fill="url(#paint2_radial_296_137)"/>
<path d="M39.4487 27.0946C41.6292 27.123 42.2617 24.1304 39.949 23.6379C38.2216 23.2875 36.3243 23.2402 34.4459 23.477C29.1882 24.0546 24.6573 26.7726 21.7028 30.3145C20.2303 32.1328 22.6373 34.0458 24.242 32.6916C28.3481 29.3485 33.7663 27.142 39.4487 27.0946Z" fill="#422B0D"/>
<path d="M70.4664 27.7387C68.3048 27.9849 67.3798 25.0681 69.6263 24.3483C71.3159 23.8369 73.1944 23.6002 75.0822 23.6475C80.3683 23.7043 85.1446 25.9583 88.4389 29.1971C90.0813 30.8639 87.8725 33.0042 86.1451 31.8109C81.7275 28.8846 76.1206 27.2273 70.4664 27.7387Z" fill="#422B0D"/>
<path d="M55.3257 84.4752C65.5201 84.4752 72.1277 76.9937 73.9211 73.4897C74.5819 72.1638 74.5819 71.0274 74.0155 70.5539C73.5436 70.1751 72.8828 70.1751 72.0333 70.5539C71.7501 70.6486 71.4669 70.838 71.1837 71.0274C66.6529 74.2473 61.0837 76.2361 55.3257 76.2361C49.5677 76.2361 43.9985 74.2473 39.4676 71.1221C39.1844 70.9327 38.9013 70.7433 38.6181 70.6486C37.7685 70.2698 37.1078 70.2698 36.6358 70.6486C36.0695 71.2168 36.0695 72.2585 36.7302 73.5844C38.5237 76.9937 45.1312 84.4752 55.3257 84.4752Z" fill="#422B0D"/>
<path d="M43.6209 51.5469L43.4321 51.3575C43.3377 51.2628 43.0545 50.9787 42.9601 50.884C42.7713 50.6946 42.5825 50.5999 42.2994 50.3158C42.0162 50.1264 41.733 49.8423 41.3554 49.6529C40.9779 49.4635 40.6003 49.1794 40.2227 48.9899C39.8451 48.8005 39.3732 48.6111 38.9012 48.4217C38.4292 48.2323 37.9573 48.1376 37.4853 48.0429C37.0133 47.9482 36.5414 47.9482 35.975 47.9482H35.7862H35.503C35.2199 47.9482 35.2199 47.9482 35.1255 47.9482C34.9367 47.9482 34.6535 48.0429 34.4647 48.0429C33.9928 48.1376 33.5208 48.2323 33.0488 48.4217C32.5769 48.6111 32.1049 48.7058 31.7273 48.9899C31.3497 49.1794 30.9722 49.3688 30.5946 49.6529C29.9338 50.1264 29.3675 50.5999 28.9899 50.884C28.6123 51.2628 28.4236 51.4522 28.4236 51.4522L28.2348 51.6416C27.102 52.7781 25.2142 52.7781 23.8927 51.831C22.9487 51.0734 22.6656 49.7476 23.1375 48.8005L23.2319 48.5164C23.3263 48.327 23.4207 48.0429 23.6095 47.7588C23.9871 47.0959 24.6478 46.1489 25.6861 45.1071C26.1581 44.6336 26.8189 44.0654 27.4796 43.5919C28.1404 43.1184 28.9899 42.6448 29.8395 42.266C30.689 41.8872 31.7273 41.5084 32.6712 41.319C33.1432 41.2243 33.7096 41.1296 34.2759 41.0349C34.5591 41.0349 34.9367 40.9402 35.0311 40.9402H35.7862C36.8245 40.9402 37.8629 41.0349 38.9012 41.2243C39.9395 41.4137 40.8835 41.7925 41.733 42.1713C42.5825 42.5501 43.4321 43.0237 44.0928 43.4972C44.848 43.9707 45.4143 44.4442 45.8863 45.0124C46.3583 45.4859 46.8302 45.9594 47.1134 46.433C47.3022 46.6224 47.3966 46.9065 47.5854 47.0959C47.6798 47.2853 47.8686 47.4747 47.963 47.6641C48.2461 48.0429 48.2461 48.2323 48.3405 48.4217C48.4349 48.6111 48.4349 48.6111 48.4349 48.6111C49.0957 50.0317 48.3405 51.6416 46.7358 52.2099C45.8863 52.6834 44.4704 52.3993 43.6209 51.5469Z" fill="#422B0D"/>
<path d="M82.2371 51.2059C82.2371 51.2059 82.171 51.1396 82.0483 51.0165C81.9444 50.9123 81.7085 50.6471 81.5669 50.543C81.3875 50.3914 81.1704 50.2115 80.9156 50.0032C80.6418 49.7948 80.3303 49.5675 79.9905 49.3308C79.6412 49.1129 79.2637 48.8857 78.8578 48.6868C78.4613 48.469 78.0082 48.3174 77.5552 48.147C77.1021 47.986 76.6207 47.9008 76.1393 47.7966C75.6579 47.7208 75.1576 47.6829 74.6573 47.6829H74.7894H74.78H74.7611H74.7234H74.6478H74.4968L74.2042 47.6924C73.9588 47.6924 73.921 47.7113 73.8266 47.7208C73.6756 47.7208 73.4019 47.7682 73.1659 47.806C72.6845 47.9102 72.2031 47.9955 71.75 48.1564C71.3063 48.3269 70.8532 48.4784 70.4568 48.6963C70.0509 48.9046 69.6733 49.1224 69.3241 49.3402C68.6444 49.7948 68.0875 50.2494 67.7194 50.5903C67.3418 50.9312 67.1247 51.1396 67.1247 51.1396L66.8887 51.3764C65.7466 52.4844 63.8209 52.5507 62.575 51.5373C61.5933 50.7324 61.3478 49.4918 61.8387 48.4595C61.8387 48.4595 61.8859 48.3648 61.9803 48.1754C62.0747 47.9955 62.1879 47.7113 62.3956 47.3799C62.7826 46.7075 63.4245 45.7605 64.4439 44.7661C64.9537 44.2736 65.5483 43.7528 66.2563 43.2792C66.9454 42.7868 67.7477 42.3417 68.635 41.9534C69.5223 41.5746 70.4851 41.2431 71.5045 41.0348C72.0237 40.9401 72.5051 40.8454 73.1376 40.7885C73.4302 40.7601 73.7794 40.7317 73.9305 40.7223L74.6573 40.6938C75.7239 40.7128 76.7811 40.8264 77.81 41.0253C78.8295 41.2337 79.7923 41.5651 80.6796 41.9439C81.5574 42.3322 82.3692 42.7773 83.0583 43.2698C83.7662 43.7433 84.3515 44.2547 84.8612 44.7566C85.3709 45.2491 85.7768 45.7415 86.1166 46.1866C86.2771 46.4139 86.4281 46.6223 86.5697 46.8211C86.7019 47.0389 86.834 47.2378 86.9378 47.4178C87.1927 47.8155 87.2116 47.967 87.306 48.147C87.372 48.2985 87.4098 48.3837 87.4098 48.3837C88.0422 49.7948 87.2777 51.3953 85.7013 51.9635C84.4647 52.4086 83.0772 52.0677 82.2371 51.2059Z" fill="#422B0D"/>
<defs>
<radialGradient id="paint0_radial_296_137" cx="0" cy="0" r="1" gradientUnits="userSpaceOnUse" gradientTransform="translate(54.948 52.9389) scale(53.7661 53.9426)">
<stop offset="0.5" stop-color="#FDE030"/>
<stop offset="0.9188" stop-color="#F7C02B"/>
<stop offset="1" stop-color="#F4A223"/>
</radialGradient>
<radialGradient id="paint1_radial_296_137" cx="0" cy="0" r="1" gradientUnits="userSpaceOnUse" gradientTransform="translate(20.6365 59.5008) scale(17.9706 17.1273)">
<stop stop-color="#ED7770"/>
<stop offset="0.9" stop-color="#ED7770" stop-opacity="0"/>
</radialGradient>
<radialGradient id="paint2_radial_296_137" cx="0" cy="0" r="1" gradientUnits="userSpaceOnUse" gradientTransform="translate(90.0174 59.5008) scale(17.9706 17.1273)">
<stop stop-color="#ED7770"/>
<stop offset="0.9" stop-color="#ED7770" stop-opacity="0"/>
</radialGradient>
</defs>
</svg>
