<svg width="37" height="37" viewBox="0 0 37 37" fill="none" xmlns="http://www.w3.org/2000/svg">
<circle cx="18.5" cy="18.5" r="18.5" fill="#4F81FF"/>
<path d="M26 17V19C26 20.8565 25.2625 22.637 23.9497 23.9497C22.637 25.2625 20.8565 26 19 26M19 26C17.1435 26 15.363 25.2625 14.0503 23.9497C12.7375 22.637 12 20.8565 12 19V17M19 26V30M15 30H23M19 7.99998C18.2044 7.99998 17.4413 8.31606 16.8787 8.87866C16.3161 9.44127 16 10.2043 16 11V19C16 19.7956 16.3161 20.5587 16.8787 21.1213C17.4413 21.6839 18.2044 22 19 22C19.7956 22 20.5587 21.6839 21.1213 21.1213C21.6839 20.5587 22 19.7956 22 19V11C22 10.2043 21.6839 9.44127 21.1213 8.87866C20.5587 8.31606 19.7956 7.99998 19 7.99998Z" stroke="#FAFAFA" stroke-width="2" stroke-linecap="round" stroke-linejoin="round"/>
</svg>
