<svg width="37" height="37" viewBox="0 0 37 37" fill="none" xmlns="http://www.w3.org/2000/svg">
<path fill-rule="evenodd" clip-rule="evenodd" d="M9.36951 7.25H18.0576C21.6906 7.25 24.2272 9.75355 24.2272 13.3414V23.6586C24.2272 27.2464 21.6906 29.75 18.0576 29.75H9.36951C5.73648 29.75 3.19995 27.2464 3.19995 23.6586V13.3414C3.19995 9.75355 5.73648 7.25 9.36951 7.25ZM30.1369 10.8182C30.7954 10.4832 31.5679 10.5182 32.1964 10.9141C32.8249 11.3085 33.1999 11.9938 33.1999 12.7431V24.2573C33.1999 25.008 32.8249 25.6918 32.1964 26.0862C31.8529 26.3009 31.4689 26.4106 31.0819 26.4106C30.7594 26.4106 30.4369 26.3344 30.1354 26.1806L27.9139 25.0598C27.0919 24.6426 26.5819 23.805 26.5819 22.8745V14.1243C26.5819 13.1923 27.0919 12.3547 27.9139 11.9405L30.1369 10.8182Z" fill="white"/>
</svg>
