<svg width="44" height="44" viewBox="0 0 44 44" fill="none" xmlns="http://www.w3.org/2000/svg">
<path fill-rule="evenodd" clip-rule="evenodd" d="M11.0036 8.1001H21.4293C25.7889 8.1001 28.8328 11.1044 28.8328 15.4097V27.7905C28.8328 32.0958 25.7889 35.1001 21.4293 35.1001H11.0036C6.64393 35.1001 3.6001 32.0958 3.6001 27.7905V15.4097C3.6001 11.1044 6.64393 8.1001 11.0036 8.1001ZM35.9242 12.3823C36.7145 11.9802 37.6415 12.0223 38.3957 12.4974C39.1499 12.9707 39.5999 13.793 39.5999 14.6921V28.5092C39.5999 29.4101 39.1499 30.2306 38.3957 30.7039C37.9835 30.9616 37.5227 31.0931 37.0583 31.0931C36.6713 31.0931 36.2843 31.0018 35.9224 30.8172L33.2566 29.4722C32.2702 28.9715 31.6582 27.9664 31.6582 26.8499V16.3496C31.6582 15.2312 32.2702 14.2261 33.2566 13.7291L35.9242 12.3823Z" fill="#D3D3D3"/>
</svg>
