<svg width="44" height="44" viewBox="0 0 44 44" fill="none" xmlns="http://www.w3.org/2000/svg">
<path fill-rule="evenodd" clip-rule="evenodd" d="M31.9841 15.2871H39.6001C39.6001 9.17212 35.9361 5.59985 29.7281 5.59985H13.4721C7.2641 5.59985 3.6001 9.17212 3.6001 15.2091V28.3906C3.6001 34.4276 7.2641 37.9999 13.4721 37.9999H29.7281C35.9361 37.9999 39.6001 34.4276 39.6001 28.3906V27.829H31.9841C28.4495 27.829 25.5841 25.0354 25.5841 21.5893C25.5841 18.1431 28.4495 15.3495 31.9841 15.3495V15.2871ZM31.984 17.9701H38.256C38.9982 17.9701 39.6 18.5568 39.6 19.2805V23.8355C39.5913 24.5557 38.9946 25.1374 38.256 25.1459H32.128C30.3386 25.1693 28.7739 23.9748 28.368 22.2756C28.1647 21.2207 28.4501 20.1322 29.1475 19.3018C29.845 18.4713 30.8832 17.9839 31.984 17.9701ZM32.2558 22.7591H32.8478C33.6078 22.7591 34.2238 22.1584 34.2238 21.4175C34.2238 20.6766 33.6078 20.076 32.8478 20.076H32.2558C31.8924 20.0718 31.5423 20.2097 31.2838 20.4588C31.0253 20.7079 30.8798 21.0475 30.8798 21.4019C30.8798 22.1454 31.4933 22.7505 32.2558 22.7591ZM12.1281 15.2871H22.2881C23.048 15.2871 23.6641 14.6864 23.6641 13.9455C23.6641 13.2046 23.048 12.604 22.2881 12.604H12.1281C11.3744 12.6039 10.7609 13.1951 10.7521 13.9299C10.752 14.6734 11.3656 15.2785 12.1281 15.2871Z" fill="#D3D3D3"/>
</svg>
